<?xml version="1.0" encoding="utf-8"?>
<!-- Generator: Adobe Illustrator 21.1.0, SVG Export Plug-In . SVG Version: 6.00 Build 0)  -->
<svg version="1.1" id="Layer_1" xmlns="http://www.w3.org/2000/svg" xmlns:xlink="http://www.w3.org/1999/xlink" x="0px" y="0px"
	 viewBox="0 0 1600 900" style="enable-background:new 0 0 1600 900;" xml:space="preserve">
<style type="text/css">
	.st0{fill:#202532;}
	.st1{fill:#FFFFFF;}
	.st2{font-family:'FuturaPT-Demi';}
	.st3{font-size:48px;}
	.st4{fill:#F4912D;}
	.st5{letter-spacing:-2;}
	.st6{letter-spacing:-3;}
	.st7{font-family:'FuturaPT-Bold';}
	.st8{font-size:72px;}
	.st9{letter-spacing:-1;}
	.st10{enable-background:new    ;}
	.st11{font-family:'FuturaPT-Book';}
	.st12{font-size:85px;}
	.st13{letter-spacing:1;}
</style>
<title>payoff1</title>
<g id="baggrund">
	<g>

			<rect x="121.5" y="-311.8" transform="matrix(0.5 -0.866 0.866 0.5 -201.7765 933.2983)" class="st0" width="1171.7" height="1906.3"/>
		<path d="M175-341.9l1650.1,952.7l-585.3,1013.8L-410.3,672L175-341.9 M174.6-343.2L-411.7,672.3L1240.1,1626l586.3-1015.6
			L174.6-343.2L174.6-343.2z"/>
	</g>
</g>
<g id="logo">

		<image style="overflow:visible;enable-background:new    ;" width="848" height="612" xlink:href="3F295FCD.png"  transform="matrix(0.39 0 0 0.39 1226 36)">
	</image>
</g>
<g id="ring">
	<text transform="matrix(1 0 0 1 55.7 744.78)" class="st1 st2 st3">Ring:</text>
	<text transform="matrix(1 0 0 1 55.7 802.38)" class="st4 st2 st3 st5">7</text>
	<text transform="matrix(1 0 0 1 80.71 802.38)" class="st4 st2 st3">020 22</text>
	<text transform="matrix(1 0 0 1 228.21 802.38)" class="st4 st2 st3 st6">8</text>
	<text transform="matrix(1 0 0 1 251.63 802.38)" class="st4 st2 st3">1</text>
</g>
<g id="payoff1">
	<text transform="matrix(1 0 0 1 56 171.59)" class="st1 st7 st8">Er du </text>
	<text transform="matrix(1 0 0 1 56 257.99)" class="st1 st7 st8">også </text>
	<text transform="matrix(1 0 0 1 237.22 257.99)" class="st1 st7 st8 st9">k</text>
	<text transform="matrix(1 0 0 1 279.05 257.99)" class="st1 st7 st8">ommet til </text>
	<text transform="matrix(1 0 0 1 56 344.3899)" class="st10"><tspan x="0" y="0" class="st1 st7 st8">at dele et billede hvor det gik </tspan><tspan x="0" y="86.4" class="st1 st7 st8">ud af kontrol? </tspan></text>
	<text transform="matrix(1 0 0 1 941.3 344.39)" class="st1 st7 st8"> </text>
	<text transform="matrix(1 0 0 1 483.6 430.79)" class="st1 st7 st8"> </text>
	<text transform="matrix(1 0 0 1 56 619.19)" class="st1 st11 st12 st6">K</text>
	<text transform="matrix(1 0 0 1 100.88 619.19)" class="st1 st11 st12">ontakt til </text>
	<text transform="matrix(1 0 0 1 395.48 619.19)" class="st1 st7 st12">Privat Snak</text>
	<text transform="matrix(1 0 0 1 854.47 619.19)" class="st1 st11 st12"> og få lu</text>
	<text transform="matrix(1 0 0 1 1125.53 619.19)" class="st1 st11 st12 st13">f</text>
	<text transform="matrix(1 0 0 1 1147.63 619.19)" class="st1 st11 st12">tet tan</text>
	<text transform="matrix(1 0 0 1 1347.54 619.19)" class="st1 st11 st12">k</text>
	<text transform="matrix(1 0 0 1 1382.5601 619.19)" class="st1 st11 st12">erne</text>
</g>
</svg>
