<?xml version="1.0" encoding="utf-8"?>
<!-- Generator: Adobe Illustrator 21.1.0, SVG Export Plug-In . SVG Version: 6.00 Build 0)  -->
<svg version="1.1" id="Layer_1" xmlns="http://www.w3.org/2000/svg" xmlns:xlink="http://www.w3.org/1999/xlink" x="0px" y="0px"
	 viewBox="0 0 1600 900" style="enable-background:new 0 0 1600 900;" xml:space="preserve">
<style type="text/css">
	.st0{fill:#202532;}
	.st1{fill:#FFFFFF;}
	.st2{font-family:'FuturaPT-Demi';}
	.st3{font-size:48px;}
	.st4{fill:#F4912D;}
	.st5{letter-spacing:-2;}
	.st6{letter-spacing:-3;}
	.st7{font-family:'FuturaPT-Bold';}
	.st8{font-size:72px;}
	.st9{letter-spacing:-1;}
	.st10{font-family:'FuturaPT-Book';}
	.st11{font-size:67px;}
	.st12{font-family:'MyriadPro-Regular';}
	.st13{font-size:12px;}
	.st14{fill:#1EC400;}
	.st15{fill:#1FB100;}
	.st16{fill:#90E181;}
	.st17{fill:#22B304;}
	.st18{fill:#20B202;}
	.st19{fill:#036015;}
	.st20{fill:#016314;}
	.st21{fill:#99BB8E;}
	.st22{fill:#026414;}
	.st23{fill:#E1F5DC;}
	.st24{fill:#F96260;}
</style>
<title>payoff2</title>
<g id="baggrund">
	<g>

			<rect x="107.9" y="-288.9" transform="matrix(0.5 -0.866 0.866 0.5 -228.4135 932.9688)" class="st0" width="1171.7" height="1906.3"/>
		<path d="M161.4-319l1650.1,952.7l-585.3,1013.8L-423.9,694.9L161.4-319 M161-320.3L-425.3,695.3l1651.8,953.7l586.3-1015.6
			L161-320.3L161-320.3z"/>
	</g>
</g>
<g id="logo">

		<image style="overflow:visible;enable-background:new    ;" width="848" height="612" xlink:href="A05340F5.png"  transform="matrix(0.39 0 0 0.39 1212.3961 58.9035)">
	</image>
</g>
<g id="ring">
	<text transform="matrix(1 0 0 1 42.0962 767.6835)" class="st1 st2 st3">Ring:</text>
	<text transform="matrix(1 0 0 1 42.0962 825.2835)" class="st4 st2 st3 st5">7</text>
	<text transform="matrix(1 0 0 1 67.1062 825.2835)" class="st4 st2 st3">020 22</text>
	<text transform="matrix(1 0 0 1 214.606 825.2835)" class="st4 st2 st3 st6">8</text>
	<text transform="matrix(1 0 0 1 238.026 825.2835)" class="st4 st2 st3">1</text>
</g>
<g id="payoff2">
	<text transform="matrix(1 0 0 1 42.3962 252.3835)" class="st1 st7 st8 st6">K</text>
	<text transform="matrix(1 0 0 1 89.1962 252.3835)" class="st1 st7 st8">an du</text>
	<text transform="matrix(1 0 0 1 42.3962 338.7836)" class="st1 st7 st8">også gen</text>
	<text transform="matrix(1 0 0 1 350.6261 338.7836)" class="st1 st7 st8 st9">k</text>
	<text transform="matrix(1 0 0 1 392.4561 338.7836)" class="st1 st7 st8">ende</text>
	<text transform="matrix(1 0 0 1 42.3962 425.1835)" class="st1 st7 st8">M</text>
	<text transform="matrix(1 0 0 1 108.2762 425.1835)" class="st1 st7 st8 st5">r</text>
	<text transform="matrix(1 0 0 1 135.5661 425.1835)" class="st1 st7 st8">. Pickles følelser?  </text>
	<text transform="matrix(1 0 0 1 42.3962 591.9835)" class="st1 st10 st11 st5">K</text>
	<text transform="matrix(1 0 0 1 77.7762 591.9835)" class="st1 st10 st11">ontakt til </text>
	<text transform="matrix(1 0 0 1 309.9861 591.9835)" class="st1 st7 st11">Privat Snak</text>
	<text transform="matrix(1 0 0 1 671.7862 591.9835)" class="st1 st10 st11"> &amp; </text>
	<text transform="matrix(1 0 0 1 745.616 591.9835)" class="st1 st10 st11">h</text>
	<text transform="matrix(1 0 0 1 776.0961 591.9835)" class="st1 st10 st11">ør hvad du kan gø</text>
	<text transform="matrix(1 0 0 1 1255.6761 591.9835)" class="st1 st10 st11 st9">r</text>
	<text transform="matrix(1 0 0 1 1273.8961 591.9835)" class="st1 st10 st11">e ved det</text>
</g>
<text transform="matrix(1 0 0 1 960.6961 902.6735)" class="st12 st13">h</text>
<g>
	<g>
		<path class="st14" d="M958.1,204.4c0.4,0,0.7,0,1.1,0c3.7,0.9,7.4,0.9,11.1,0c0.4,0,0.7,0,1.1,0c0.2,0.5,0.7,0.5,1.1,0.5
			c13.6,0.5,24.9,6.3,34.7,15.4c14.7,13.7,25.8,30,34.1,48.2c15.5,34.1,21.5,70.2,21.1,107.5c-0.1,12.4-2.3,24.6-7.7,35.9
			c-9.6,20.4-25.9,33.7-46.5,41.9c-13.1,5.2-26.8,6.9-41,5.9c-13.6-0.9-27.2-2-40.3-6.4c0.4-3.8-1.1-7.5-1-11.2
			c0.2-9.7,2.9-18.9,5.6-28.1c0.1-0.3,0.4-0.6,0.9-0.5c1.2,4.7,2.3,9.5,3.5,14.3c0.7,2.7,1.3,5.5,2.7,8c1.4,2.5,4,3.4,6.9,2.5
			c2.5-0.8,3.6-2.5,3.7-5.2c0.1-3.8-0.2-7.6-0.7-11.3c-1.5-11.3-4.5-22.4-6-33.7c-0.5-3.7-2.3-7.1-2.4-10.8
			c-0.1-3.8-2.4-7.3-5.3-8.1c-4.2-1.1-6.5-0.1-9,3.9c-1.4,2.2-2.5,4.6-3.4,7.1c-2.4,6.7-3.2,13.7-4.2,20.6
			c-1.5,10.4-4.5,20.4-5.6,30.9c-0.1,1.5-0.8,2-2.3,1.6c-3.5-0.8-7.2-0.8-10.8-0.8c-2,0-4,0.8-6,0.5c-8.5-15.5-8.5-31,0.2-46.3
			c1.4-2.4,1.6-3.7-0.3-5.9c-4.4-5.1-8.9-10.1-14.1-15.3c0,1.1,0,1.7,0,2.3c0.4,14.5,3.3,28.7,5.6,42.9c1.2,7.7,3.1,15.4,3.5,23.2
			c-0.5,0.7-1.4,0.7-2.1,0.9c-3.6,1.2-7.2,2.5-10.3,4.6c-6.1,4.2-6.7,11.8-2.6,16.9c1.5,1.9,4,2.5,5.5,4.4
			c-3.5,1.9-6.9,1.5-10.2-0.6c-6.4-4.1-11.5-16-9.9-23.4c0.7-3.2-0.3-6.1-1.2-9.1c0-2.1,0-4.2,0-6.4c1-0.6,0.5-1.8,0.8-2.6
			c0.9-2.6,2.6-4.1,5.4-4.3c2.3-0.1,4.1,0.9,5.8,2.2c4.3,3.5,7.4,8,10.1,12.8c0.4,0.8,0.9,1.5,1.5,2.6c0.4-1.7,0.3-2.9,0.1-4.1
			c-1.3-7.1-2.6-14.2-3.9-21.3c-2.9-15.2-5.4-30.5-5.8-46.1c-0.1-3.5-0.5-7.1,4.3-8c0.4-0.1,0.7-0.6,1-0.8c3.2-2.5,6.6-2.5,9.6,0.3
			c6.8,6.6,14.6,12.3,20,20.3c0.5,0.8,1,1,1.9,0.5c4.3-1.9,8.9-3.4,13-5.7c5.4-3,5.5-4.5,1.2-8.8c0,0-0.1,0-0.1,0
			c-0.2-0.3-0.4-0.6-0.9-0.6l0.1,0.1c0-0.4-0.2-0.6-0.6-0.6l0.1,0.1c-0.1-0.7-0.6-0.5-1.1-0.5c-0.5-0.7-1-1.5-1.6-2.1
			c-5.1-4.2-10.9-7.4-16.3-11.3c-0.7-0.5-1.5-0.5-2.3-0.5c-1.9-1.8-4.4-2.6-6.4-4.2c1.5-0.8,3.4-1.3,3.2-3.6c-0.2-1.8-1.2-3-2.8-3.8
			c-0.5-0.2-1-0.4-1.4-0.6c0.7-0.8,1.4-1.6,2.2-2.3c1.4-1.3,1.2-2.4-0.6-2.8c-3.2-0.8-6.4-1.4-9.6-2c-0.7-0.2-1.5-0.2-1.8,0.6
			c-0.4,0.9,0.1,1.5,0.9,1.9c1.3,0.7,2.8,1.1,4.3,1.3c1.1,0.2,3-0.4,3.2,1c0.2,1.1-1.7,1.6-2.7,2.2c-0.2,0.1-0.3,0.1-0.5,0.2
			c-1.4,0.8-1,1.4,0.2,2c-0.1,0.7,0,1.5-0.6,2.1c-6.2-4.1-11.3-9.3-14.9-15.8c-7.6-13.8-7.8-28.3-3.9-43.1
			c2.6-9.8,7.4-18.6,12.8-27.1c0.9-0.5,2-1,2.3-2.1c1-3.1,3.3-5,5.4-7.3c2.9-3.1,5.4-6.4,8-9.7c0.3-0.1,0.7-0.2,0.9-0.4
			c4.6-4.4,9.7-8,14.9-11.7c11.2-6.9,23.3-10.9,36.3-12.5C952,205.2,955.2,205.4,958.1,204.4z M956.1,326.2
			c-0.9,4.8-0.3,6.8,2.7,8.5c2.7,1.5,5.6,1.5,8.3,0c2.7-1.4,3.3-3.8,3.2-6.7c-0.2-5-2.8-7-7.6-5.5c-1.3,0.4-2.6,1.1-3.9,1.6
			c-0.1-1.2-0.8-1.9-2-2.1c-2-0.3-4-0.6-6-0.4c-4.6,0.6-8.9,2-13.3,3.4c-1.4,0.4-2.8,1.1-4.7,0.9c0.8-0.9,1.4-1.4,1.8-2
			c1.9-2.3,3.8-4.6,5.7-6.9c0.6-0.7,1.3-1.7,0.3-2.5c-1.1-0.9-1.8,0.1-2.4,0.8c-0.9,0.9-1.7,1.8-2.5,2.7c-3.3,3.6-6.5,7.2-11.3,8.9
			c-1.1,0.4-2.6,0.7-2.2,2.4c0.4,1.5,1.7,1.6,2.9,1.7c5.2,0.3,10.1-0.7,15.2-1.7C945.6,328.1,950.7,326.7,956.1,326.2z
			 M1046.1,344.2c-0.1,5.3,0,9.2-0.5,13.2c-1.1,7.5-2.5,14.8-6.2,21.4c-4.2,7.6-11.4,11.3-19.1,9.6c-6.3-1.4-11.7-4.3-16.3-8.8
			c-7.1-6.8-11.7-15.2-15.6-24c-5.9-13.3-8.4-27.6-11.3-41.7c-0.4-1.7,0.4-2.2,1.6-2.8c4.2-2,7-5.4,8.3-9.8
			c3.5-12.2,2.3-24.2-1.8-36c-1.5-4.4-3.9-8.2-8.1-10.8c-6-3.8-11.3-2-13.5,4.7c-0.3,1-0.6,2.1-0.7,3.1c-0.1,1.4-0.6,2.6-1.3,3.7
			c-1.4,2-2.1,4.3-2.5,6.6c-1.4,7.9-1.5,15.8-0.3,23.7c1,6.9,3.4,13.1,10.8,15.6c1,0.3,1.1,1.2,1.3,2.1c1,7,1.9,14.1,3.1,21.1
			c2.9,17.3,8.5,33.7,19.6,47.6c6.5,8.1,14.6,14,25,16.2c10.9,2.3,20.1-0.4,27.3-9.1c4.7-5.7,7.4-12.4,9.2-19.4
			c2.7-10.3,3.1-20.8,2.6-31.4c-0.3-7.3-1.5-14.3-3.8-21.2c-0.5-1.6-1.3-3.1-2.7-4.2c-2-1.6-5.3-1.8-7.4-0.1c-2,1.5-2.2,3.5-1.4,5.9
			C1045.3,327.9,1046.4,336.6,1046.1,344.2z M939.9,350.5c1.4,0,2.8,0.1,4.2,0c4.1-0.4,8.3-0.8,11.9-3.1c3.5-2.3,4-6.1,1.2-9.3
			c-2.4-2.8-5.6-3.9-9-4.5c-5.8-1-11.7-1.2-17.6-0.5c-5.3,0.7-10.4,1.7-14.7,5.2c-1.3,1.1-3.2,2.5-2.7,3.9c0.5,1.5,2.7,1.8,4.5,2
			c2,0.2,4.2,0.5,5.4,2.3c1.7,2.4,4.1,3.2,6.8,3.5C933.2,350.2,936.5,350.8,939.9,350.5z M886.7,282.8c2,3.5,5.6,4.9,10.2,3.9
			c3.3-0.7,6.5-1.8,9.5-3.1c11.3-4.8,22.3-10.8,35.3-9.4c0.5,0.1,1.2,0,1.2-0.7c0.1-0.8-0.6-1-1.2-1.2c-3.4-1-6.9-1.7-10.4-1.2
			c-7.4,0.9-14.2,3.4-20.5,7.2c-3.2,1.9-6.5,3.8-10.1,5.3C895.9,285.6,891.2,286.6,886.7,282.8z M883.6,268.3
			c-0.7,3.1,0.4,4.4,2.5,4.9c4.3,1.1,8.4-0.1,12.4-1.5c6.4-2.3,11.8-6.2,17.7-9.4c0.7-0.4,1.9-0.7,1.4-1.8c-0.5-1-1.6-0.5-2.4-0.2
			c-4.9,1.3-9.3,3.7-13.7,6.2c-4.1,2.3-8.2,4.4-12.9,5.3C885.7,272.4,884.8,271.9,883.6,268.3z M936.7,291.8
			c-2.2,0.2-4.4,0.4-6.6,0.7c-2,0.3-4,0.9-5.7,1.9c-0.5,0.3-1.2,0.6-1,1.4c0.3,0.9,1,0.4,1.5,0.3c3.9-1.2,7.9-1.7,11.9-2.5
			c0.8-0.2,2.2,0.1,2.1-1C938.7,291.3,937.4,292,936.7,291.8z M872.1,302.8c1.8-1.1,4-1.3,6-2.2c0.6-0.3,1-0.8,0.8-1.5
			c-0.2-0.8-1-1-1.7-0.8c-2.2,0.5-4.1,1.5-5.8,2.9c-0.4,0.3-0.6,0.6-0.5,1.1C871,302.8,871.4,302.8,872.1,302.8z M880.4,281.1
			c-3.3-0.6-5.8,0.9-8.3,2.7c-0.6,0.4-1.6,1-0.9,1.8c0.6,0.8,1.5,0.1,2.1-0.3C875.4,283.6,877.4,281.6,880.4,281.1z"/>
		<path class="st15" d="M926.9,453.4c-2.6,8.1-9,11-16.6,12.7c-1.6,0.3-3.2,0.1-4.7,1c-1.1,0-2.1,0-3.2,0c-0.9-0.7-1.8-0.7-2.6,0
			c-1.2,0-2.5,0-3.7,0c-6-1.5-12-2.9-17.4-6.1c-1.5-1.9-4-2.5-5.5-4.4c-4.1-5.1-3.5-12.6,2.6-16.9c3.2-2.2,6.7-3.4,10.3-4.6
			c0.7-0.2,1.6-0.2,2.1-0.9c1.8,0.2,3.5-0.4,5.2-0.9c2.1,0.3,4-0.5,6-0.5c3.6-0.1,7.2-0.1,10.8,0.8c1.5,0.4,2.1-0.1,2.3-1.6
			c1.1-10.4,4.1-20.5,5.6-30.9c1-7,1.8-14,4.2-20.6c0.9-2.5,2-4.9,3.4-7.1c2.5-4,4.9-5,9-3.9c2.9,0.7,5.2,4.2,5.3,8.1
			c0.1,3.8,1.9,7.1,2.4,10.8c1.5,11.3,4.4,22.4,6,33.7c0.5,3.7,0.8,7.5,0.7,11.3c-0.1,2.6-1.2,4.4-3.7,5.2c-2.9,0.9-5.5-0.1-6.9-2.5
			c-1.4-2.5-1.9-5.3-2.7-8c-1.3-4.7-2.4-9.5-3.5-14.3c-0.5-0.2-0.8,0.1-0.9,0.5c-2.7,9.2-5.4,18.5-5.6,28.1
			C925.8,445.9,927.3,449.5,926.9,453.4z"/>
		<path class="st16" d="M970.3,204.4c-3.7,0.9-7.4,0.9-11.1,0C962.9,204.4,966.6,204.4,970.3,204.4z"/>
		<path class="st17" d="M899.9,467.1c0.9-0.7,1.8-0.7,2.6,0C901.6,467.1,900.8,467.1,899.9,467.1z"/>
		<path class="st15" d="M1046.1,344.2c0.3-7.6-0.8-16.3-3.6-24.7c-0.8-2.4-0.5-4.4,1.4-5.9c2.1-1.6,5.5-1.5,7.4,0.1
			c1.3,1.1,2.1,2.6,2.7,4.2c2.3,6.9,3.5,14,3.8,21.2c0.4,10.6,0,21.1-2.6,31.4c-1.8,7.1-4.5,13.8-9.2,19.4
			c-7.1,8.7-16.4,11.4-27.3,9.1c-10.4-2.2-18.5-8.1-25-16.2c-11.2-13.9-16.7-30.3-19.6-47.6c-1.2-7-2.1-14.1-3.1-21.1
			c-0.1-0.9-0.2-1.8-1.3-2.1c-7.4-2.5-9.8-8.7-10.8-15.6c-1.2-7.9-1.1-15.8,0.3-23.7c0.4-2.4,1.1-4.6,2.5-6.6
			c0.7-1.1,1.2-2.3,1.3-3.7c0.1-1,0.3-2.1,0.7-3.1c2.2-6.8,7.5-8.5,13.5-4.7c4.2,2.6,6.5,6.4,8.1,10.8c4.1,11.8,5.3,23.9,1.8,36
			c-1.3,4.4-4.1,7.8-8.3,9.8c-1.2,0.6-2,1-1.6,2.8c2.9,14.1,5.5,28.4,11.3,41.7c3.9,8.9,8.5,17.2,15.6,24c4.6,4.4,10,7.4,16.3,8.8
			c7.6,1.7,14.8-2,19.1-9.6c3.7-6.7,5.2-14,6.2-21.4C1046.1,353.4,1046,349.5,1046.1,344.2z"/>
		<path class="st18" d="M881.2,249.3c-5,0.1-7.9-3.4-6.9-8.3c1.3-6.5,3-12.8,6.6-18.5c3.9-6.2,9.4-9.6,16.9-9.2c1,0,1.7-0.2,2.5-0.6
			c2.7-1.2,5.5-1.8,8.4-1.8c1.8,0,3.3,0.5,4.1,2.2c0.8,1.7,0.5,3.2-0.7,4.6c-2.5,1.6-5.2,2.9-7.5,4.7c-2.9,2.3-6.2,4.3-7.7,7.9
			c-2.7,3.2-5.2,6.6-8,9.7c-2.1,2.2-4.4,4.2-5.4,7.3C883.1,248.3,882.1,248.7,881.2,249.3z"/>
		<path class="st19" d="M939.9,350.5c-3.4,0.3-6.7-0.4-10-0.6c-2.7-0.2-5.1-1.1-6.8-3.5c-1.3-1.8-3.4-2.1-5.4-2.3
			c-1.8-0.2-4.1-0.4-4.5-2c-0.4-1.4,1.4-2.8,2.7-3.9c4.3-3.5,9.5-4.5,14.7-5.2c5.9-0.7,11.8-0.6,17.6,0.5c3.5,0.6,6.6,1.8,9,4.5
			c2.8,3.2,2.3,7-1.2,9.3c-3.6,2.3-7.8,2.7-11.9,3.1C942.7,350.7,941.3,350.5,939.9,350.5z M920.9,340.3c2.9,0.7,4.9,1.8,6.2,4
			c0.4,0.7,1,0.9,1.8,1c4.6,0.5,9.1,1.3,13.7,0.9c3.4-0.3,6.9-0.5,10.1-2c2.3-1.1,2.4-2.4,0.5-4c-1.2-1-2.7-1.6-4.3-2
			c-5.8-1.3-11.7-1.3-17.6-0.8C927.9,337.8,924.5,338.5,920.9,340.3z"/>
		<path class="st20" d="M956.1,326.2c-5.4,0.4-10.5,1.9-15.8,3c-5,1-10,2-15.2,1.7c-1.3-0.1-2.6-0.1-2.9-1.7c-0.4-1.7,1.1-2,2.2-2.4
			c4.7-1.7,8-5.3,11.3-8.9c0.8-0.9,1.6-1.9,2.5-2.7c0.7-0.7,1.4-1.7,2.4-0.8c1.1,0.9,0.3,1.8-0.3,2.5c-1.8,2.4-3.8,4.6-5.7,6.9
			c-0.5,0.6-1,1.1-1.8,2c1.9,0.1,3.3-0.5,4.7-0.9c4.4-1.4,8.7-2.8,13.3-3.4c2.1-0.3,4,0.1,6,0.4c1.2,0.2,1.9,0.9,2,2.1
			c-0.6,0.5-1.3,1-1.9,1.6C956.5,325.7,956.2,325.8,956.1,326.2L956.1,326.2z"/>
		<path class="st17" d="M897.2,343.4c1,0.5,1.8-0.1,2.7-0.3c0.8,0,1.6,0,2.3,0.5c5.4,3.9,11.2,7.1,16.3,11.3
			c0.7,0.5,1.1,1.4,1.6,2.1c0.2,0.5,0.4,1,1.1,0.5c0,0-0.1-0.1-0.1-0.1c0,0.2-0.1,0.5,0,0.7c0.2,0.4,0.4-0.1,0.6-0.1
			c0,0-0.1-0.1-0.1-0.1c0,0.3-0.2,0.6,0.2,0.9c0.4,0.3,0.5-0.2,0.7-0.3c0,0,0.1,0,0.1,0c-1.4,1.1,0.3,1.5,0.6,2.1
			c0.3,0.7,0.4,1.3,0,2c-0.4,0.5-0.9,0.7-1.6,0.6c-7.5-1.4-14.4-4-19.5-9.9c-2.5-2.8-4.9-5.7-4.7-9.9L897.2,343.4z"/>
		<path class="st21" d="M956.9,325.7c0.6-0.5,1.3-1,1.9-1.6c1.3-0.5,2.5-1.2,3.9-1.6c4.8-1.5,7.5,0.6,7.6,5.5
			c0.1,2.9-0.6,5.3-3.2,6.7c-2.8,1.5-5.6,1.5-8.3,0c-3-1.7-3.6-3.7-2.7-8.5c0,0-0.1,0-0.1,0C956.5,326.4,956.7,326,956.9,325.7z"/>
		<path class="st22" d="M886.7,282.8c4.5,3.8,9.2,2.8,14,0.9c3.5-1.4,6.8-3.3,10.1-5.3c6.4-3.8,13.2-6.3,20.5-7.2
			c3.6-0.4,7,0.2,10.4,1.2c0.6,0.2,1.3,0.4,1.2,1.2c-0.1,0.7-0.7,0.7-1.2,0.7c-13-1.5-24,4.6-35.3,9.4c-3.1,1.3-6.2,2.4-9.5,3.1
			C892.3,287.7,888.7,286.4,886.7,282.8z"/>
		<path class="st22" d="M883.6,268.3c1.2,3.6,2.1,4.1,5.1,3.5c4.7-0.9,8.8-3,12.9-5.3c4.4-2.5,8.8-4.8,13.7-6.2
			c0.8-0.2,1.9-0.8,2.4,0.2c0.5,1.1-0.7,1.4-1.4,1.8c-5.9,3.2-11.3,7.2-17.7,9.4c-4,1.4-8.1,2.6-12.4,1.5
			C884,272.7,882.8,271.4,883.6,268.3z"/>
		<path class="st21" d="M893.4,338.9c-2.9,0.1-4.7-1.5-6.2-3.7c0.6-0.6,0.4-1.4,0.6-2.1c1.2-1.4,2.6-2.3,4.5-2.1
			c0.5,0.2,1,0.4,1.4,0.6c1.6,0.8,2.7,2,2.8,3.8C896.8,337.6,894.9,338.1,893.4,338.9z"/>
		<path class="st22" d="M892.3,331c-1.9-0.2-3.3,0.6-4.5,2.1c-1.1-0.6-1.6-1.2-0.2-2c0.2-0.1,0.3-0.1,0.5-0.2
			c1.1-0.6,2.9-1.1,2.7-2.2c-0.2-1.4-2-0.8-3.2-1c-1.5-0.2-2.9-0.6-4.3-1.3c-0.8-0.4-1.3-1-0.9-1.9c0.3-0.8,1.1-0.7,1.8-0.6
			c3.2,0.7,6.4,1.3,9.6,2c1.8,0.4,2,1.5,0.6,2.8C893.7,329.5,893,330.3,892.3,331z"/>
		<path class="st22" d="M936.7,291.8c0.7,0.2,2.1-0.5,2.2,0.7c0.1,1.1-1.3,0.8-2.1,1c-4,0.8-8,1.3-11.9,2.5
			c-0.5,0.2-1.3,0.7-1.5-0.3c-0.2-0.7,0.5-1,1-1.4c1.8-1,3.7-1.6,5.7-1.9C932.2,292.1,934.4,292,936.7,291.8z"/>
		<path class="st23" d="M896.9,230.2c1.6-3.6,4.9-5.6,7.7-7.9c2.3-1.8,5-3.2,7.5-4.7c0.2,0.2,0.4,0.4,0.6,0.5
			c-5.1,3.7-10.3,7.3-14.9,11.7C897.6,230.1,897.2,230.1,896.9,230.2z"/>
		<path class="st22" d="M872.1,302.8c-0.6,0.1-1,0-1.2-0.5c-0.1-0.5,0.1-0.9,0.5-1.1c1.8-1.3,3.7-2.4,5.8-2.9c0.7-0.2,1.5,0,1.7,0.8
			c0.2,0.7-0.3,1.2-0.8,1.5C876.1,301.5,873.8,301.7,872.1,302.8z"/>
		<path class="st22" d="M880.4,281.1c-3,0.5-5,2.5-7.1,4.2c-0.6,0.5-1.5,1.1-2.1,0.3c-0.6-0.8,0.4-1.4,0.9-1.8
			C874.6,282,877.1,280.4,880.4,281.1z"/>
		<path class="st17" d="M897.3,343.4c0,0-0.1,0-0.1,0C897.2,343.4,897.3,343.4,897.3,343.4z"/>
		<path class="st24" d="M920.9,340.3c3.6-1.9,7-2.5,10.4-2.8c5.9-0.6,11.8-0.6,17.6,0.8c1.6,0.4,3,1,4.3,2c1.9,1.6,1.8,2.9-0.5,4
			c-3.2,1.5-6.6,1.7-10.1,2c-4.6,0.4-9.1-0.4-13.7-0.9c-0.7-0.1-1.4-0.3-1.8-1C925.8,342.2,923.8,341,920.9,340.3z"/>
		<path class="st14" d="M956.9,325.7c-0.2,0.3-0.4,0.7-0.9,0.5C956.2,325.8,956.5,325.7,956.9,325.7z"/>
	</g>
</g>
</svg>
