<svg id="Cucumber_2016_1" data-name="Cucumber 2016_1" xmlns="http://www.w3.org/2000/svg" width="123.4mm" height="176.03mm" viewBox="0 0 349.79 499">
  <defs>
    <style>
      .cls-1 {
        fill: #62b521;
      }

      .cls-2 {
        fill: #57992b;
      }

      .cls-3 {
        fill: #1d330e;
      }

      .cls-4 {
        fill: #39501c;
      }

      .cls-5 {
        fill: #243312;
      }

      .cls-6 {
        fill: #2b5210;
      }

      .cls-7 {
        fill: #488024;
      }

      .cls-8 {
        fill: #fff;
      }
    </style>
  </defs>
  <title>pickle</title>
  <g>
    <path class="cls-1" d="M158.24,405.38s-2.4-21.73,11.65-37.1c0,0,18.85-29.47,27.37-31.69,0,0-9.89-10,.54-23.53,0,0-19.55-5.3-31.38-15.39s-11.83-22.92-11.83-22.92-16.33-5-21.42-22.67,6-28.67,6-28.67-9.5-15.83-9.08-38.58l-4-3.17s-6.67,5.25-12.25,1.67S102,172,112.17,163c0,0-6.25-12.67-2.92-26.58S136.82,79,161.67,57.67,195.39,31.58,210.17,29s22-.51,30.67,5.17,10,9.67,25.42,18.17c0,0,9.5-4.42,17.42,2.42s4.08,16.58,4.08,16.58,29.65,25.2,46.65,88.32c0,0,12.1.85,14.1,13.72s-8.62,16.25-8.62,16.25,3.25,25.12,0,47.5c0,0,29.5,44.37,7.25,101.5,0,0,8.25,9.62,1.88,19.37s-15.87,7.37-15.87,7.37S323.38,385.75,299.5,404c0,0,.5,15.37-8.37,20.87s-14.25,1.5-14.25,1.5-10.62,6.88-19.37,27.38S247.25,494.5,222.13,495c0,0-12.25,9.5-27.12,7s-22.37-20.5-24.5-37.75-2.25-16.62-6.62-24.87-5-11-5-11-7.62-5.75-8-13.37S158.24,405.38,158.24,405.38Z" transform="translate(-80.8 -5.55)"/>
    <path class="cls-2" d="M165.89,206.32s-16.14,5.28-26.72,17.1a77.14,77.14,0,0,1-8.72-29.34c-1.51-17,4.18-26.91,13.7-27S163,176.69,165.89,206.32Z" transform="translate(-80.8 -5.55)"/>
    <path class="cls-2" d="M256.55,185s-23.52-4.83-43.41,6.82c0,0-10.09-16.63-9.81-33.32s20.53-20.82,33-10.09S256.55,185,256.55,185Z" transform="translate(-80.8 -5.55)"/>
    <path class="cls-2" d="M197.26,336.58a44.81,44.81,0,0,0,5,3.63c2.82,1.76,7.4,10,7.93,16.21s-4.76,10.57-9.34,11.63-7-.79-8.9-2.29-2.47-1.76-6.87-.53A90,90,0,0,1,162.41,369c-10.57.35-11.28.18-11.89,6.08s2.38,7.14,4.93,11.45,4.05,8.46-2.64,10.31-13-2.38-14-11.72-.35-12.86-4.49-11a46.68,46.68,0,0,1-15.15,3.61,8.72,8.72,0,0,1-.26,10.66c-4.32,5.46-14.89,2-20.44-2.38s-6.7-9.43-1.41-13c0,0-3.76-3.91-3.08-8.19s6.17-5.46,6.17-5.46a19.09,19.09,0,0,1,8.19-11.89c6.88-4.29,20.44-4.76,33.13,5.37,0,0,8.63-.09,22.29-.53s19.82-1.32,23-6.61S191.93,337.54,197.26,336.58Z" transform="translate(-80.8 -5.55)"/>
    <path class="cls-2" d="M411.14,325.06a51.43,51.43,0,0,1-12.77,3.45s-1.13,9.13-6.31,12.77-11.34,1.88-11.94-4.43,4.36-11.57.53-14a15,15,0,0,1-5.33-6l-20.43-7.21s1-15.89.15-24c0,0,15.18,13.89,27,19.45,0,0,11.64-8.56,20.28-9.39s10.07,5,10.07,5,14.12-1.43,12.92,12.62c0,0,6,5.63,1.73,16.37s-15.25,17.2-19.3,13.07S409.41,327.92,411.14,325.06Z" transform="translate(-80.8 -5.55)"/>
    <path class="cls-3" d="M178.72,277.41s25.93-.64,62.88-21.62c0,0-.64,11.09-1.77,24s-1.84,20.91-11.37,23.67S212.84,301,203.87,293,186.28,279.39,178.72,277.41Z" transform="translate(-80.8 -5.55)"/>
    <path class="cls-4" d="M183.75,102.63s-22.12,36.62,1.13,58.75c0,0-35,4.5-46.75-33.87,0,0-25.37,19.62-51.62.88,0,0,17.45,1.09,26.75-14.5s15.63-16.38,15.63-16.38-16.63-2.24-27.38-14c0,0,22.88,5.25,33.38-11.75,0,0-6.5-6.5-7.87-13.25,0,0,10,5.5,24.13-1.5,0,0-7.5-11.75-14.37-16.87s-10.63-5.75-6.62-12.62S149.63,11,156.88,8.75s8.25-3.12,12.88,4,5,9.62,5,16.25.5,12.87.5,12.87,15.13-9.12,19.88-20.12a25.12,25.12,0,0,1,1.13,14.12A115.45,115.45,0,0,0,193.88,51s7.71-11.14,27.88-13.62,26.63-3.37,33.38-8.75c0,0-2.25,14.12-11.12,23.25S225.13,63,215.5,72.13a77.34,77.34,0,0,1,11.38,10.5c6.38,7,16,12,32.13,8.12C259,90.75,228,129.13,183.75,102.63Z" transform="translate(-80.8 -5.55)"/>
    <path class="cls-5" d="M183,78.94s12.51-4.79,13.72-15S189,52.7,189,52.7A20.45,20.45,0,0,1,186,43.37c0-4.8,2.7-12.43,2.7-12.43s-7.08,7-13.5,10.94c0,0-.72,7.55,3.28,11.07s4.9,9.47-4,18.13-.09.29-.09.29,5.46-4.73,9.58-5.7S189.75,71.61,183,78.94Z" transform="translate(-80.8 -5.55)"/>
    <path class="cls-5" d="M151.1,87.21s-15.61-7.6,2-19.72a20,20,0,0,1-2.42,8.24C148.35,79.86,151.1,87.21,151.1,87.21Z" transform="translate(-80.8 -5.55)"/>
    <path class="cls-5" d="M199.45,73a55.54,55.54,0,0,1,14.24-8.17c8.24-3.15,21.49-5.9,21.49-5.9s-12.28,6.93-19.67,13.21C215.5,72.13,209,68.07,199.45,73Z" transform="translate(-80.8 -5.55)"/>
    <path class="cls-5" d="M143.21,103.74s-6.34,8-5.09,23.76c0,0-6.84,4.53-11.34,6A54.64,54.64,0,0,0,133,120.34C135.74,112,143.21,103.74,143.21,103.74Z" transform="translate(-80.8 -5.55)"/>
    <path class="cls-6" d="M111.05,160.29s.36-23.48,31.27-22.45a71.91,71.91,0,0,1-4.2-10.34s-10.83,8.31-28.87,8.92C109.25,136.42,105.74,143.87,111.05,160.29Z" transform="translate(-80.8 -5.55)"/>
    <path class="cls-6" d="M151.78,150.32s11.64,19.24,48.66,22.1c0,0-29.66-25.77-8.8-58.3,0,0,27.21,5.93,53.8-3.07L272,102l-25.52-.32s-28.8,22.33-62.77.9c0,0-22.58,35.71,1.35,58.34C185.1,161,166.53,164.22,151.78,150.32Z" transform="translate(-80.8 -5.55)"/>
    <path class="cls-6" d="M241.23,91.3S239.39,79.16,233,73.83c0,0,4.36-7.58,11.62-7.58,0,0,20.46-11.86,41.94,4.3,0,0,5.87-7-2.9-15.8-7.54-7.52-17.42-2.42-17.42-2.42l-14.9-9.87s-8.67,12.41-22,19.93-13.84,9.72-13.84,9.72a36.56,36.56,0,0,1,11.38,10.5C231.92,89.78,241.23,91.3,241.23,91.3Z" transform="translate(-80.8 -5.55)"/>
    <path class="cls-6" d="M196.73,32.75S222.45,20.32,242.06,35c0,0-8.6,1.36-21.43,2.54s-22.54,8-26.75,13.47a30,30,0,0,1,1.29-11C197,34.33,196.73,32.75,196.73,32.75Z" transform="translate(-80.8 -5.55)"/>
    <path class="cls-6" d="M300.83,107.83s5.5-.17,8.17,6.17-3.25,14.27-11.87,17.55C297.13,131.55,309.33,120.5,300.83,107.83Z" transform="translate(-80.8 -5.55)"/>
    <path class="cls-6" d="M334.4,159.65s12.92.23,14.23,14.72a14.75,14.75,0,0,1-8.75,15.25S337.66,170.85,334.4,159.65Z" transform="translate(-80.8 -5.55)"/>
    <path class="cls-6" d="M315,192.5c-.16-.5,7.83,2.33,6.5,11.5s-17,10.56-17,10.56S320,208.5,315,192.5Z" transform="translate(-80.8 -5.55)"/>
    <path class="cls-6" d="M262.49,129.94s15.51-.6,18.34,8.73-12.6,14.08-12.6,14.08S287,138.38,262.49,129.94Z" transform="translate(-80.8 -5.55)"/>
    <path class="cls-6" d="M210.33,207.17s10.33,2.83,10.83,13.67c.6,13-13.32,19.33-26.17,20.5-14.67,1.33-23.24-4.76-26.37-8.8s-2.3-6.37-2.3-6.37,3,9.17,21,9.67S226.5,220,210.33,207.17Z" transform="translate(-80.8 -5.55)"/>
    <path class="cls-6" d="M107.56,169a23.72,23.72,0,0,1,13.24,15.27l5.27-2.56s-9-9.76-13.92-18.67C112.17,163,108.3,166.36,107.56,169Z" transform="translate(-80.8 -5.55)"/>
    <path class="cls-6" d="M160.21,290.8s4.22-15.44,27.75-9.54c0,0-6.2-3.44-9.25-3.85s-14.58-.38-24.13-2.66C154.58,274.75,155,284.76,160.21,290.8Z" transform="translate(-80.8 -5.55)"/>
    <path class="cls-6" d="M194.22,331.65s-1.55-8.31,11.11-8.31,15,5,22,6.58l-2.81-3.58s-17-10-26.7-13.28C197.8,313.05,190.11,321.46,194.22,331.65Z" transform="translate(-80.8 -5.55)"/>
    <path class="cls-6" d="M240.67,280.5s6.5-15.17,15.33-25.67,18.2-23.07,18.2-23.07-16.22,15.64-32.6,24C241.59,255.79,241,261.83,240.67,280.5Z" transform="translate(-80.8 -5.55)"/>
    <path class="cls-6" d="M287.81,270.23s10,5.94,6.19,16.94-18.16,10.36-18.16,10.36S293.79,292.62,287.81,270.23Z" transform="translate(-80.8 -5.55)"/>
    <path class="cls-6" d="M338.17,285.67s5.67,8.5.33,13.33-13.44-.56-13.44-.56S338.83,300,338.17,285.67Z" transform="translate(-80.8 -5.55)"/>
    <path class="cls-6" d="M333.13,365.37a15.56,15.56,0,0,0,16.8-9c5.57-11.37-2.8-17.75-2.8-17.75S340.42,356.08,333.13,365.37Z" transform="translate(-80.8 -5.55)"/>
    <path class="cls-6" d="M296.9,353.48s5.6,11.19-1.23,18-15.87.25-15.87.25S297,373.79,296.9,353.48Z" transform="translate(-80.8 -5.55)"/>
    <path class="cls-6" d="M226.5,381.83s.83,10.83,11.17,11.33,13.71-11.78,13.71-11.78S238.17,395.83,226.5,381.83Z" transform="translate(-80.8 -5.55)"/>
    <path class="cls-6" d="M210.9,360.21S206.67,371.5,195.67,372s-22.33,6.67-28.33,14.33-4.33,13.83-.5,17.17,9.67,9.17,5.67,13.17-10.87,4.18-13.14-.91S155,386,169.89,368.28c0,0,11.28-1.61,15.11-3.28s5.17-1.33,8.67,1.5S204.46,368.93,210.9,360.21Z" transform="translate(-80.8 -5.55)"/>
    <path class="cls-6" d="M215.17,469.33s7.5,5.83,15.83,1.17,3-18.16,3-18.16S234.67,469.67,215.17,469.33Z" transform="translate(-80.8 -5.55)"/>
    <path class="cls-7" d="M377.36,319.92c.14.16,7.07-13,1.14-16.74s-15.41-9.76-23.47-17.62a130.72,130.72,0,0,1-.15,24s17.34,6.48,19.18,7S377.36,319.92,377.36,319.92Z" transform="translate(-80.8 -5.55)"/>
    <path class="cls-7" d="M130.33,192.5s3.49-25.43,25.29-19.59c0,0-6.6-9.32-16.89-4.54S130.33,192.5,130.33,192.5Z" transform="translate(-80.8 -5.55)"/>
    <path class="cls-7" d="M204.93,171.5s-1.44-14.76,13.72-18.38,24.06,2.41,24.06,2.41-9.49-15.92-26.85-12.5S203.73,167.2,204.93,171.5Z" transform="translate(-80.8 -5.55)"/>
    <g>
      <path d="M157.27,429.18s-8.12-5.51-8.12-13.5S156,403.56,156,403.56l-.15-6.07a11.44,11.44,0,0,1-11,.15c-6.33-3-8.83-10.74-8.55-16.25s.15-6.2-2.61-4.7-4.56,1.66-8.14,2.35l-3.57.69s3.42,10.2-6.76,12.4-19.57-5.23-22.74-9.37,1.94-9.8,1.94-9.8-2.91-5.1-2.35-8.67,6.07-5.79,6.07-5.79,5.77-14.06,16-15.16,17.35,1.25,21.77,3.73a43,43,0,0,1,6.35,4.13s11-.43,20.93-.28,19.85-1.53,22.2-7.17,9.37-8.39,9.37-8.39-3.6-3.32-3.6-10.21,3.47-10.46,3.47-10.46-21.49-6.48-32.66-18.6c-9.39-10.18-9.65-19.16-9.65-19.16s-15.72-6.74-21.23-23.27,5-30.31,5-30.31-5-12.14-6.63-22.2-1.23-15-1.23-15l-2.48-1.94s-11.15,6.48-18.6-4.54c-6.76-10,2.88-16.94,2.88-16.94a55.19,55.19,0,0,1-3.57-13,37.87,37.87,0,0,1,.13-11.3A60.76,60.76,0,0,1,91,133.36c-7.3-3.73-10.2-8.14-10.2-8.14s11.32,2.19,20.13-2.63,14.34-16.25,17.63-20.11S123,97.95,123,97.95s-6.91-.28-16.28-7.17S95.55,79.34,95.55,79.34a41.84,41.84,0,0,0,20.95,2.07c11.3-1.94,15.7-9.8,15.7-9.8a27.39,27.39,0,0,1-5.36-8.4,22.68,22.68,0,0,1-1.53-9.37s5,4.8,11.45,4.67a34.38,34.38,0,0,0,12-2.6s-5.51-6.46-11.43-12.12-11.71-6.61-11-12,10.33-15.44,24.8-22.33S167.46,5.6,171.46,12s5.25,9.36,5.38,17.22,0,9.24,0,9.24a49.19,49.19,0,0,0,12-10.46c5.92-7,6.74-12.83,6.74-12.83s1.53,5.25,2.22,8.7a45.6,45.6,0,0,1,.82,5.92s14.9-5.1,26.33-3.32S242,32.78,242,32.78A45.57,45.57,0,0,0,250.43,29a35.68,35.68,0,0,0,7.15-5.79,42.25,42.25,0,0,1-1.63,11.3,69.55,69.55,0,0,1-2.5,6.89,40.34,40.34,0,0,1,7.32,4.26l5.08,3.45S279.5,46.38,286,54.39s4.54,16.13,4.54,16.13a193.13,193.13,0,0,1,29.9,45.19c12.68,26.87,15.85,41.77,15.85,41.77s14,3.32,14.32,17.22-9.21,16.94-9.21,16.94a214.69,214.69,0,0,1,1.91,26.46c0,13.09-1.1,19-1.1,19a93.41,93.41,0,0,1,10.61,24,157.67,157.67,0,0,1,4.54,23s8.26,7.86,14.06,12.4a38.82,38.82,0,0,0,10.34,6.07s11.69-9.37,22.59-8.55,10.48,5.51,10.48,5.51,7.6-.13,10.61,5.1,2.19,8.68,2.19,8.68a16.86,16.86,0,0,1,.69,18c-5.51,10.08-14.75,17.24-21.36,12.83s.41-15.84.41-15.84-1.51.56-3.57,1.1a19.54,19.54,0,0,1-4.29.54s-1.51,14.08-11.15,14.9-12-7.45-9.65-13.37.15-7.6-1.79-9.51a27.66,27.66,0,0,1-2.9-3.29l-17.07-6.2s-1.92,10.05-3.85,16.25a69.67,69.67,0,0,1-3.45,9.23s7.41,10.34.95,21.08-16.53,8.68-16.53,8.68-7.86,14.6-18.6,25.21-14,12.81-14,12.81,0,13.93-7.73,19.85a18,18,0,0,1-15.84,3.17s-12.66,8.68-20.52,31.69-13.65,31.41-22.89,34.86-12.68,1.81-12.68,1.81-10.87,9.06-24.65,7.15-22.86-12-26.59-27.12-1.4-21.77-5.25-30.32S158.8,434.41,157.27,429.18Zm-1.92-57.87c-3.44.82-3.19,5.94-1.53,9a40,40,0,0,0,3.72,5.51,43.42,43.42,0,0,1,3.44-8.12,65,65,0,0,1,4.69-7C163.9,370.9,158.8,370.49,155.35,371.31Zm191.1-197.58c-.56-9-9-10.74-9-10.74l1.53,8.4c1.53,8.4,2.2,14.6,2.2,14.6S347,182.69,346.46,173.73ZM286.25,66.94S288,61,281.69,56s-11-2.48-11-2.48A98,98,0,0,1,286.25,66.94ZM159.75,17.47c5.64-5.51,7-10.62-3.29-6.2s-18.47,10.61-23,16.26-2.84,8.42,3.72,5.51A83.09,83.09,0,0,0,159.75,17.47ZM197.1,40.2a27,27,0,0,0-1,6.2s1.1-2.48,5.51-5a54.35,54.35,0,0,1,19.7-5.92c7-.54,14.75-1.53,14.75-1.53s-6.07-4.67-18-3.85-19.57,4.41-19.57,4.41A28,28,0,0,1,197.1,40.2Zm-53.89,63.53s-9.77,18.6,4.82,38.15S181,159.67,181,159.67s-8-6.2-9-24c-.86-15.78,10.74-36.77,10.74-36.77s11.86,11.43,33.91,10.87S254,93.53,254,93.53,244.92,95.6,236.22,92,221.9,80.44,215.83,74.65,199.45,73,199.45,73a17.61,17.61,0,0,1,7.3-3,16.05,16.05,0,0,1,7.58.26A38,38,0,0,1,219.84,66c4.54-3.16,3.72-2.2,15.57-9.64s17.22-23.55,17.22-23.55-8.27,5.51-29.62,6.61a39.82,39.82,0,0,0-31.13,17.76s-1.38-9.77,1.38-17.35.69-11.71.69-11.71-1.38,2.76-6.07,7a118.65,118.65,0,0,1-10.74,8.42s-.28,5.77,3.85,8.81a6.7,6.7,0,0,1,2.76,5.38s9.24,1.51,8.4,10.05S180,80.31,180,80.31s7.73-5.38,9.24-11.58-6.07-7.3-6.07-7.3-.26,2.07-3.29,5-5.38,4.69-5.38,4.69,8.42-11.3,4.54-14.88-4.39-4.82-5.64-11.71.56-19.57-1.79-23.85-3.85-7-3.85-7-1.66,5.64-12.68,13.78-18.47,9.93-18.47,9.93,8.68,7.86,13.09,13.37,7,13.35,3.59,22.87S152.6,85.14,157,87.2s9.52-.28,9.52-.28a15.33,15.33,0,0,1-11,2.35c-6.07-1.23-9.09-6.63-6.07-15.59s.69-13.78.69-13.78A67.24,67.24,0,0,1,141.43,62a24.4,24.4,0,0,1-11-.26,42,42,0,0,0,2.22,4,52.89,52.89,0,0,0,5,5.92s-1.25,2.91-9.37,9.8-20.82,4.13-20.82,4.13a51.7,51.7,0,0,0,9.93,6.2,28.84,28.84,0,0,0,12.4,3.16s1.79-.69,6.61-2.07,10.89-2.76,10.89-2.76-4.26,1.1-13.5,6.48-13,10.05-20.54,21.21a27.69,27.69,0,0,1-19.7,11.86s10.42,5.1,18.47,4.67c12.68-.69,23.83-7.71,23.83-7.71C134.95,112.13,143.21,103.74,143.21,103.74ZM111.26,178.4c5,6.74,11.28,2.91,11.28,2.91a52,52,0,0,1-4.54-5.23,77.71,77.71,0,0,1-6.33-9.64S106.29,171.66,111.26,178.4Zm52.21,27s-1.23-18.75-7.86-28.93-20.8-10.74-22.74,6.33,6.63,36.66,6.63,36.66A55.65,55.65,0,0,1,163.47,205.42Zm43.81,87.91c10.46,9,15,9.78,21.64,7.45s8-10.49,8.85-20.67,1.49-20.67,1.49-20.67-4.67,2.75-22,10.33-29.62,9-29.62,9C193.94,281.61,196.82,284.37,207.28,293.33Zm169.07,21.77a64.79,64.79,0,0,0,6.2,6.61c3.57,3.3-1.66,10.08,0,15.59s8.14,3.86,10.61.26,4.54-12.25,4.7-14,1.23,2.47,1.23,2.47.41.69,6.48-.84A41,41,0,0,0,416,320.88c1.79-.82-2.76,4-2.76,4s-6.2,11.84-4.54,14.73,5.92,2.91,12.12-4S426.93,323,425,317.16s-8.12-6.89-12.4-6.89-11.43,2.35-11.43,2.35a37.06,37.06,0,0,1,11.17-4.27,18,18,0,0,1,10.06,1.23s1.12-7.71-11.71-7.43a47.64,47.64,0,0,0-13.65,2.6,25.54,25.54,0,0,1,6.2-3.57c3.29-1.23,5.51-1.79,5.51-1.79s-2.07-2.63-10.06-.84A30.7,30.7,0,0,0,385,306.14a70.45,70.45,0,0,1,5.25,5c1,1.25-4.82-2.35-14.75-7S358,291,358,291s.13,1.53,0,6.61-.56,10.08-.56,10.08Zm-29.07,41.62a12.27,12.27,0,0,0,.28-12.68l-3.45,7.17a73.65,73.65,0,0,1-7.45,12.27A13.36,13.36,0,0,0,347.29,356.71Zm-192.63,63.1c3.44,8.68,12.53,10.48,12.53,10.48l-4.82.13a178.91,178.91,0,0,1,8.14,17.91c3.19,8.55.54,11.43,4.39,26.59s14.06,25.49,25.92,25.36,21.77-8.14,21.77-8.14,11.56,1.38,18.32-6.61,8.14-17.35,15.84-35.13S274,426.58,274,426.58s-5.11-6.35-6.07-8.27,5.73,7.43,14.9,6.48c9.36-1,11.28-5,13.63-12.42,2.76-8.68,1-14.73,1-14.73l2.61,3.57s9.64-5.1,24.24-26,29.47-47.54,29.22-80.61A117.9,117.9,0,0,0,337.37,237s1.87-6.57,1.66-18.73c-.28-15.72,1-48.79-23.14-101.28s-64.76-71-64.76-71-7.45,11.3-17,16a69,69,0,0,0-15.42,10.2s.41.28,3.7,2.89,7,8.7,15.85,13.09,26.05-1.23,26.05-1.23S251.25,108.84,224.79,113s-40.24-6.76-40.24-6.76-7.69,13.22-8.27,28.1c-.69,17.91,13.65,28.68,13.65,28.68s-20.11,3.17-34.32-6.89A51.78,51.78,0,0,1,137,131.3a96.75,96.75,0,0,1-13.09,5.23A42.83,42.83,0,0,1,111,138.31s-2.15,9,2.07,20.39c5,13.37,16,22,16,22s.84-9.93,8.83-14.19S157,167.25,161.4,178s6.76,27.43,6.76,27.43,1.25,0,4.26-.15c5.23-.26-39.81,9.36-37.89,37.61s25.64,32.81,42,32.25,29.77-4.26,62.16-20.1,44.22-36.11,44.22-36.11-7.58,13.91-19,23.55a137.1,137.1,0,0,1-20,14.34s-.69,5.23-1.38,14.6.41,26.74-10.05,32.66S214,305.32,201,293.2s-22.46-13.52-29.22-13.52a70.93,70.93,0,0,1-14.19-1.79s-.69,6.07,7.3,14.47,16.26,12.27,34.17,18.75,21.79,15.28,39.14,17.35,23.83-3,23.83-3-6.2,5.79-17.07,6.48a45,45,0,0,1-28.25-7,135.81,135.81,0,0,0-17.91-9.24s-5.94,8.12-2.35,16.13,13.37,12.12,13.37,12.12a44.55,44.55,0,0,1-7.17-2.62,23.08,23.08,0,0,1-4.28-2.61A10.36,10.36,0,0,0,192,342c-2.76,3-2.48,4.29-6.33,7.86s-13.78,4.82-25.08,4.54-20,.28-20,.28-1.66-1.25-6.35-4.41-15.57-5.1-22.17-2.6-9.24,9.78-9.24,9.78,2.63-.41,4.69-.82,5.79-1.81,10.61-2.22a30.06,30.06,0,0,1,8.4.41s-8,0-12.53,2.35-14.62,3.16-17.24,6.2,1.4,7.45,1.4,7.45,12.12-6.61,18-7.73,8.55.43,8.55.43a22.88,22.88,0,0,0-8.55,1.51c-5.1,1.79-6.61,4.41-15.44,8s-4.41,9,1.1,12.81,13.24,3.59,15.72,1.12,1.1-8.42-1.1-9.11-6.89-2.88-8.14-4,8.55,2.07,12.4,1.64,12.27-3.17,14.9-4,3.85.94,4.8,12c.75,8.72,6.89,12.4,11.71,11.43s4.82-4.69-.82-10.89-2.48-15.44,1.66-16.38,8.68-.56,15.85-1.12a55.25,55.25,0,0,0,16-3.7c4.67-1.64,6.07-.43,8.55,1.64s8.4,2.62,13.5-2.33.84-13.78.84-13.78,6.89,9.37.95,16.79-13.91,4.82-16.38,2.91-3.16-2.07-7.86-.56a133.49,133.49,0,0,1-13.78,3A45.18,45.18,0,0,0,160.44,392c-2.35,13.22,1.66,27.71,1.66,27.71a34,34,0,0,1-4.13-6.61,17.35,17.35,0,0,1-1.38-4.56S151.22,411.14,154.67,419.81Z" transform="translate(-80.8 -5.55)"/>
      <path d="M192.13,206.8s14.49-5.79,22.48,1.79,1.94,24-16.81,28.25-32.66-2.5-33.35-12.27,15.85-14.47,15.85-14.47-11.41,4.39-12.53,11.71,8.37,12.27,21.47,11.58,26.35-7.75,24.29-18.62S192.13,206.8,192.13,206.8Z" transform="translate(-80.8 -5.55)"/>
      <path d="M253.75,183s-9.24-2.35-23.42.41-16.15,5.1-16.15,5.1-9.35-16.71-8.38-30.33,15.37-17.61,27.41-9.09C245.89,158,252.78,179.11,253.75,183Zm4.8.69S255.25,169,243,152.37s-38.86-15.16-41.21,1.79S210,190.67,210,190.67s-.95,1.25-2.76,4a44.1,44.1,0,0,0-3.17,5.92s7.3-9.65,27-13.37,37.46,2.07,37.46,2.07C266.13,186,258.55,183.66,258.55,183.66Z" transform="translate(-80.8 -5.55)"/>
      <path d="M240.51,139l-1.38.82s-19.57-25.23-44.37-10.33c-1.06.65-5.51-5.79-3.45-7.3S218.44,109.25,240.51,139Z" transform="translate(-80.8 -5.55)"/>
      <path d="M126.14,172.76s-2.07-30.18,16.53-32.79c1-.13,4.11,5.64,1.51,6.61s-8.93,1-12.94,8.55-4,17.22-4,17.22Z" transform="translate(-80.8 -5.55)"/>
      <path d="M234,452.34s1.79,17.2-13.37,18.86-12.25-14.87-12.25-14.87.13,13.22,12.25,11S234,452.34,234,452.34Z" transform="translate(-80.8 -5.55)"/>
      <path d="M201.52,408.94s-18.77,6.76-23.17-7.58,13-17.5,13-17.5-13.09,4.14-9,16.53S201.52,408.94,201.52,408.94Z" transform="translate(-80.8 -5.55)"/>
      <path d="M251.38,381.39s-10.61,13.6-21.77,5.77-1-20.8-1-20.8-6.48,11.15,3.45,17.63S251.38,381.39,251.38,381.39Z" transform="translate(-80.8 -5.55)"/>
      <path d="M289,341s15.54,15,5.23,27.15c-9,10.59-22-.69-22-.69s10.75,6.46,19.7-2.07S289,341,289,341Z" transform="translate(-80.8 -5.55)"/>
      <path d="M328.41,275.82s14.45,4.54,10.46,15.84-16,6.07-16,6.07,10.74,1.51,13.09-7.58S328.41,275.82,328.41,275.82Z" transform="translate(-80.8 -5.55)"/>
      <path d="M272.33,266.18s20.51-3.32,18.32,15.56-24.11,16.4-24.11,16.4S284,299,286.79,283,272.33,266.18,272.33,266.18Z" transform="translate(-80.8 -5.55)"/>
      <path d="M298.38,184.88s16.69-4.15,18.88,10.74-13.52,19.16-13.52,19.16,12.68-5.51,9.93-18.32S298.38,184.88,298.38,184.88Z" transform="translate(-80.8 -5.55)"/>
      <path d="M261,129.92s15.59-.69,15.59,11.84-18.06,13.09-18.06,13.09,14.06-2.07,14.75-12.12S261,129.92,261,129.92Z" transform="translate(-80.8 -5.55)"/>
      <path d="M283.91,105.11s17.5-6.33,21.36,6.89-8.14,19.55-8.14,19.55,7.43-9.39,4.13-18.86C297.82,102.79,283.91,105.11,283.91,105.11Z" transform="translate(-80.8 -5.55)"/>
      <path d="M232.24,77S234,62.12,247.8,64.88s12.27,18.19,12.27,18.19-.86-13-12.83-14.9S232.24,77,232.24,77Z" transform="translate(-80.8 -5.55)"/>
    </g>
    <g>
      <path d="M217.75,188.89a16.35,16.35,0,0,1-4.67-11.45c-.13-7.43,6.22-9.75,11-5.9s6.48,13.63,6.48,13.63A63.29,63.29,0,0,0,217.75,188.89Z" transform="translate(-80.8 -5.55)"/>
      <path class="cls-8" d="M220.81,173.47c2.76-.84,5.23,4.54,2.89,5.77S218,174.31,220.81,173.47Z" transform="translate(-80.8 -5.55)"/>
    </g>
    <g>
      <path d="M149.56,214.51s-6.2-7-4.69-13.78c1.94-8.76,9.52-7.32,13-2.35A15.06,15.06,0,0,1,160,209.15,17.34,17.34,0,0,0,149.56,214.51Z" transform="translate(-80.8 -5.55)"/>
      <path class="cls-8" d="M150.79,198.25c2.76-.82,6.07,4.56,3.31,5.79S148,199.07,150.79,198.25Z" transform="translate(-80.8 -5.55)"/>
    </g>
  </g>
</svg>
